<svg width="119" height="88" viewBox="0 0 119 88" fill="none" xmlns="http://www.w3.org/2000/svg">
<rect x="5.75" y="55.4001" width="16" height="32" rx="1.5" stroke="white"/>
<rect x="96.75" y="55.4001" width="16" height="32" rx="1.5" stroke="white"/>
<path d="M22 5.59991C19 6.09991 15.5384 19.8989 13 28.0999C15 27.5999 18 27.5999 18 27.5999L48 26.0999L49 24.5999H59.5H70L71 26.0999L101 27.5999C101 27.5999 104 27.5999 106 28.0999C103.462 19.8989 100 6.09991 97 5.59991C94 5.09991 67 3.59991 59.5 3.59991C52 3.59991 25 5.09991 22 5.59991Z" fill="white" fill-opacity="0.15"/>
<path d="M18 27.5999C18 27.5999 18.5 35.5999 21.5 35.5999H59.5H97.5C100.5 35.5999 101 27.5999 101 27.5999M18 27.5999L59.5 27.0999L101 27.5999M18 27.5999C18 27.5999 15 27.5999 13 28.0999M18 27.5999L48 26.0999L49 24.5999H59.5H70L71 26.0999L101 27.5999M13 28.0999C15.5384 19.8989 19 6.09991 22 5.59991C25 5.09991 52 3.59991 59.5 3.59991C67 3.59991 94 5.09991 97 5.59991C100 6.09991 103.462 19.8989 106 28.0999M13 28.0999C12 28.5999 10.5 28.5999 9.5 29.0999M3.5 59.5999C3.5 59.5999 2.53591 59.5999 2 57.5999C1.46409 55.5999 0.500082 47.0999 0.5 43.5999C0.499918 40.0999 3.5 32.5433 6 31.0999C8.5 29.6565 8.5 29.5999 9.5 29.0999M32 52.5999H6.5C5.5 52.5999 12 65.064 14 65.5999C16 66.1358 59.5 66.0999 59.5 66.0999C59.5 66.0999 103 66.1358 105 65.5999C107 65.064 113.5 52.5999 112.5 52.5999H87M32 52.5999V57.5999C32 59.5999 34 60.5999 36.5 60.5999H59.5H82.5C85 60.5999 87 59.5999 87 57.5999V52.5999M32 52.5999H59.5H87M9.5 29.0999C11.6479 20.5084 16 7.59991 16 7.59991C18 2.59991 19.5 3.09991 23.5 2.59991C23.5 2.59991 51.5 1.09991 59.5 1.09991C67.5 1.09991 95.5 2.59991 95.5 2.59991C99.5 3.09991 101 2.59991 103 7.59991C103 7.59991 107.352 20.5084 109.5 29.0999M101 27.5999C101 27.5999 104 27.5999 106 28.0999M106 28.0999C107 28.5999 108.5 28.5999 109.5 29.0999M115.5 59.5999C115.5 59.5999 116.464 59.5999 117 57.5999C117.536 55.5999 118.5 47.0999 118.5 43.5999C118.5 40.0999 115.5 32.5433 113 31.0999C110.5 29.6565 110.5 29.5999 109.5 29.0999" stroke="white"/>
<circle cx="12.5" cy="43.5999" r="5" stroke="white"/>
<circle cx="5.5" cy="5.5" r="5" transform="matrix(-1 0 0 1 112 38.0999)" stroke="white"/>
</svg>
