<svg width="289" height="89" viewBox="0 0 289 89" fill="none" xmlns="http://www.w3.org/2000/svg">
<circle cx="225.5" cy="67.9385" r="20" stroke="white"/>
<circle cx="225.5" cy="68.0999" r="13.5" stroke="white"/>
<circle cx="44.5" cy="67.9385" r="20" stroke="white"/>
<circle cx="44.5" cy="68.0999" r="13.5" stroke="white"/>
<path d="M18.9998 66.4385H10.4998L5.24052 60.5999L0.579146 34.5999L32 31.4385L90.4998 30.4385L127.5 1.93851C127.5 1.93851 170.311 -0.723652 199.5 3.43851C235.505 8.5726 288 32.4385 288 32.4385L288.5 58.5999L280.5 66.9385H250.5C248.291 60.8634 248.134 56.4458 243.5 51.9385C238.011 46.5992 232.656 45.2808 225 45.4385C216.694 45.6097 210.975 47.6905 205.5 53.9385C200.249 59.9311 199.5 73.4385 199.5 73.4385L70.9998 72.4385C70.9998 72.4385 68.358 58.177 61.9998 52.4385C55.9934 47.0175 50.5867 45.1805 42.4998 45.4385C35.6469 45.6572 30.9995 46.7465 25.9998 51.4385C21.2861 55.8621 18.9998 66.4385 18.9998 66.4385Z" stroke="white"/>
<path d="M90 30.5999C79 30.5999 70.2264 28.3835 57.5 28.0999C45.0002 27.8214 25.5 29.0999 25.5 29.0999L29 30.5999L25.5 32.0999" stroke="white"/>
<path d="M181 28.9385H102L133.598 6.43851L186 7.93851L181 28.9385Z" fill="#D9D9D9" fill-opacity="0.15"/>
<path d="M189.5 28.9385L193 7.93851L224.5 15.4385L219.5 25.4385L189.5 28.9385Z" fill="#D9D9D9" fill-opacity="0.15"/>
<path d="M181 28.9385H102L133.598 6.43851L186 7.93851L181 28.9385Z" stroke="white"/>
<path d="M189.5 28.9385L193 7.93851L224.5 15.4385L219.5 25.4385L189.5 28.9385Z" stroke="white"/>
</svg>
