<svg width="109" height="294" viewBox="0 0 109 294" fill="none" xmlns="http://www.w3.org/2000/svg">
<path d="M27.8456 8.24402L54.4993 1.09997L81.1531 8.24403M27.8456 8.24402L18.6148 15.6309L10.8539 96.3089M27.8456 8.24402L5.69184 16.5542C2.89403 17.8201 2.11537 19.0401 1.99951 22.0944L0.499503 25.2185L0.499501 69.7185L1.99951 79.7185L1.9995 199.841L0.499495 204.028L0.499494 240.43L1.99956 259.718L1.84614 277.1C2.16409 288.29 4.29084 292.841 16 293.1L24.1533 293.1M24.1533 293.1L54.4993 293.1L84.8454 293.1M24.1533 293.1L10.8539 253.857C7.08459 231.92 6.61485 210.921 6.61485 199.841C6.61485 188.76 8.9226 121.678 8.9226 121.678L10.8539 96.3089M40.9994 50.5507C40.9994 50.5507 42.384 39.1242 44.6917 37.7915C46.9993 36.4587 54.4993 35.1936 54.4993 35.1936C54.4993 35.1936 61.9993 36.4587 64.307 37.7915C66.6147 39.1242 67.9993 50.5507 67.9993 50.5507M81.1531 8.24403L90.3839 15.6309L98.1456 96.3089M81.1531 8.24403L103.307 16.5542C106.105 17.8201 106.883 19.0401 106.999 22.0944L108.5 25.2185L108.5 69.7185L107 79.7185L107 199.841L108.5 204.028L108.5 240.43L107 259.718C107 259.718 106.998 269.475 106.999 277.1C106.681 288.29 104.709 292.841 93 293.1C86.9997 293.1 84.8454 293.1 84.8454 293.1M84.8454 293.1L98.1449 253.857C101.914 231.92 102.384 210.921 102.384 199.841C102.384 188.76 100.076 121.678 100.076 121.678L98.1456 96.3089M10.8539 96.3089L13.9997 95.1587M13.9997 95.1587L18.6148 121.678M13.9997 95.1587L94.9997 95.1587M18.6148 121.678L90.3839 121.678M18.6148 121.678L21.9997 209.58M98.1456 96.3089L94.9997 95.1587M94.9997 95.1587L90.3839 121.678M90.3839 121.678L85.9997 209.58" stroke="white"/>
<path d="M18.6149 122.1L13.9998 95.5803L94.9998 95.5803L90.384 122.1L18.6149 122.1Z" fill="white" fill-opacity="0.15" stroke="white"/>
<path d="M54.049 254.286L25.5491 254.286L22.0563 211.049C21.8526 209.226 22.1538 208.629 23.703 208.58L53.9336 208.58L84.3951 208.58C85.9443 208.629 86.2455 209.226 86.0418 211.049L82.549 254.286L54.049 254.286Z" fill="white" fill-opacity="0.15" stroke="white"/>
</svg>
