<svg width="28" height="22" viewBox="0 0 28 22" fill="none" xmlns="http://www.w3.org/2000/svg">
<path d="M27.2375 6.62305C28.0374 8.94643 28.2121 11.4395 27.7433 13.8516L27.007 13.709L26.2707 13.5654C26.6893 11.4118 26.5337 9.18578 25.8195 7.11133L27.2375 6.62305Z" fill="white"/>
<path d="M22.426 0C24.3883 1.47883 25.9267 3.44816 26.8869 5.70996L26.1965 6.00391L25.506 6.29688C24.6487 4.2771 23.275 2.51777 21.5226 1.19727L21.9738 0.598633L22.426 0Z" fill="white"/>
<path d="M0.762879 6.62305C-0.0370624 8.94643 -0.211757 11.4395 0.25702 13.8516L0.993348 13.709L1.72968 13.5654C1.31111 11.4118 1.46663 9.18578 2.18085 7.11133L0.762879 6.62305Z" fill="white"/>
<path d="M1.20136 14.6104L0.476746 14.8037C1.1128 17.1775 2.36305 19.3424 4.10077 21.0801L5.16132 20.0195C3.60979 18.468 2.49387 16.5354 1.92597 14.416L1.20136 14.6104Z" fill="white"/>
<path d="M26.799 14.6104L27.5236 14.8037C26.8876 17.1775 25.6373 19.3424 23.8996 21.0801L22.8391 20.0195C24.3906 18.468 25.5065 16.5354 26.0744 14.416L26.799 14.6104Z" fill="white"/>
<path d="M5.5744 0C3.61206 1.47883 2.07365 3.44816 1.11347 5.70996L1.80389 6.00391L2.49432 6.29688C3.35167 4.2771 4.72535 2.51777 6.47772 1.19727L6.02655 0.598633L5.5744 0Z" fill="white"/>
<path d="M22.5002 11.1807C22.5002 6.48624 18.6946 2.68066 14.0002 2.68066C9.30576 2.68066 5.50018 6.48624 5.50018 11.1807C5.50018 15.8751 9.30576 19.6807 14.0002 19.6807V21.1807C8.47734 21.1807 4.00018 16.7035 4.00018 11.1807C4.00018 5.65782 8.47734 1.18066 14.0002 1.18066C19.523 1.18066 24.0002 5.65782 24.0002 11.1807C24.0002 16.7035 19.523 21.1807 14.0002 21.1807V19.6807C18.6946 19.6807 22.5002 15.8751 22.5002 11.1807Z" fill="white"/>
<path d="M13.315 6.58069H14.683V13.4207H13.315V6.58069ZM13.999 16.2527C13.671 16.2527 13.415 16.1727 13.231 16.0127C13.055 15.8447 12.967 15.6127 12.967 15.3167C12.967 15.0127 13.055 14.7767 13.231 14.6087C13.415 14.4407 13.671 14.3567 13.999 14.3567C14.327 14.3567 14.579 14.4407 14.755 14.6087C14.939 14.7767 15.031 15.0127 15.031 15.3167C15.031 15.6127 14.939 15.8447 14.755 16.0127C14.579 16.1727 14.327 16.2527 13.999 16.2527Z" fill="white"/>
</svg>
