<svg width="28" height="29" viewBox="0 0 28 29" fill="none" xmlns="http://www.w3.org/2000/svg">
<path d="M27 14.9363C27 7.75658 21.1797 1.93628 14 1.93628C6.8203 1.93628 1 7.75658 1 14.9363C1 22.116 6.8203 27.9363 14 27.9363V28.9363C6.26801 28.9363 0 22.6683 0 14.9363C0 7.20429 6.26801 0.936279 14 0.936279C21.732 0.936279 28 7.20429 28 14.9363C28 22.6683 21.732 28.9363 14 28.9363V27.9363C21.1797 27.9363 27 22.116 27 14.9363Z" fill="white"/>
<path d="M16 14.9363C16 16.0408 15.1046 16.9363 14 16.9363C12.8954 16.9363 12 16.0408 12 14.9363C12 13.8317 12.8954 12.9363 14 12.9363C15.1046 12.9363 16 13.8317 16 14.9363Z" fill="white"/>
</svg>
