<svg width="24" height="20" viewBox="0 0 24 20" fill="none" xmlns="http://www.w3.org/2000/svg">
<path d="M18.378 10.7302C18.3066 10.4635 18.4649 10.1893 18.7316 10.1179L20.6634 9.60022C20.9302 9.52875 21.2043 9.68704 21.2758 9.95377L22.3111 13.8175C22.3826 14.0842 22.2243 14.3584 21.9575 14.4298L20.0257 14.9475C19.759 15.019 19.4848 14.8607 19.4133 14.5939L18.378 10.7302Z" fill="white"/>
<path d="M4.16802 14.1001C4.09655 13.8334 4.25484 13.5592 4.52157 13.4877L6.45342 12.9701C6.72016 12.8986 6.99432 13.0569 7.06579 13.3236L8.10107 17.1873C8.17254 17.4541 8.01425 17.7283 7.74752 17.7997L5.81567 18.3174C5.54893 18.3888 5.27476 18.2305 5.20329 17.9638L4.16802 14.1001Z" fill="white"/>
<path d="M22.3446 18.9362V19.9362L3.34458 19.9362L3.34458 18.9362L22.3446 18.9362Z" fill="white"/>
<path d="M20.1803 2.26828L21.7605 5.46427L22.4329 5.13246L23.105 4.7997L21.5245 1.60276L20.1803 2.26828Z" fill="white"/>
<path d="M2.01056 7.13682L2.24002 10.6948L1.49181 10.7436L0.743351 10.7915L0.513636 7.23259L2.01056 7.13682Z" fill="white"/>
<path d="M0.869747 7.88193C0.494401 7.94319 0.126565 7.71082 0.0257756 7.33565C-0.0813871 6.93579 0.155333 6.52481 0.555162 6.41735L20.8823 0.956559C21.2822 0.849111 21.694 1.08581 21.8015 1.48569C21.909 1.88557 21.6721 2.29728 21.2724 2.40494L0.944334 7.86598L0.869747 7.88193Z" fill="white"/>
<path d="M3.6025 13.0215L21.9721 8.0994L21.5083 4.55369L22.996 4.35929L23.63 9.20808L2.80124 14.7891L2.52971 14.2361L0.638312 10.3996L1.98308 9.73592L3.6025 13.0215Z" fill="white"/>
<path d="M5.59908 7.99577L5.98731 9.44466L0.792628 10.8366L0.4044 9.38768L5.59908 7.99577Z" fill="white"/>
<path d="M22.6961 3.4146L23.0844 4.86349L17.8897 6.2554L17.5015 4.80651L22.6961 3.4146Z" fill="white"/>
</svg>
