<svg width="20" height="24" viewBox="0 0 20 24" fill="none" xmlns="http://www.w3.org/2000/svg">
<path d="M10.0004 0.180664V1.68066H6.04724L3.96521 4.18066H10.0004V5.68066H0.763061L5.34412 0.180664H10.0004Z" fill="white"/>
<path d="M10.0004 0.180664V1.68066H13.9528L16.0349 4.18066H10.0004V5.68066H19.237L14.6559 0.180664H10.0004Z" fill="white"/>
<path d="M17.4946 6.18621L18.0619 9.0241L19.5326 8.72918L18.9653 5.89128L17.4946 6.18621Z" fill="white"/>
<path d="M2.50543 6.18626L1.93805 9.02415L0.467346 8.72923L1.03473 5.89133L2.50543 6.18626Z" fill="white"/>
<path d="M0.75 6.1806L0.672852 6.1767C0.294882 6.13808 -2.85358e-08 5.81877 0 5.4306C1.00261e-06 5.04244 0.294883 4.72313 0.672852 4.68451L0.75 4.6806L19.25 4.68061C19.6642 4.68061 20 5.01639 20 5.43061C20 5.84482 19.6642 6.18061 19.25 6.18061L0.75 6.1806Z" fill="white"/>
<path d="M2.49469 10.9643H17.689L18.0543 8.21038L19.5406 8.40765L19.0035 12.4643H1.26423L0.467351 8.4555L1.93805 8.16253L2.49469 10.9643Z" fill="white"/>
<path d="M5.00037 7.44415V8.94415H0.635135V7.44415H5.00037Z" fill="white"/>
<path d="M19.3652 7.44415V8.94415H15V7.44415H19.3652Z" fill="white"/>
<path d="M2.5 11.9307H5.5V14.9307H2.5V11.9307Z" fill="white"/>
<path d="M14.5 11.9307H17.3378V14.7685H14.5V11.9307Z" fill="white"/>
<path d="M17.0445 15.9307C17.2617 16.2672 17.5234 16.6776 17.7593 17.1494C17.9549 17.5406 18.0603 17.9722 18.023 18.4258C17.9858 18.8766 17.8149 19.2571 17.605 19.5615C17.2193 20.1207 16.623 20.5273 16.1773 20.8115C15.6387 21.1549 15.2516 21.3625 14.8365 21.6572C14.4425 21.937 14.2692 22.1366 14.2036 22.2676C14.0942 22.4865 14.1226 22.9675 14.5386 23.7246C14.5774 23.7952 14.6181 23.8637 14.6587 23.9307H11.8999C11.6206 23.1227 11.4844 22.1154 11.9673 21.1494C12.3138 20.4568 12.9008 19.9649 13.3892 19.6182C13.8567 19.2863 14.4754 18.9315 14.8335 18.7031C15.1979 18.4708 15.3934 18.3118 15.4917 18.207C15.3117 17.8563 15.1082 17.5371 14.8902 17.2002C14.6782 16.8727 14.4116 16.4673 14.2261 16.0596C14.2072 16.0181 14.1895 15.9744 14.1714 15.9307H17.0445Z" fill="white"/>
<path d="M5.89994 15.9307C6.11715 16.2672 6.37889 16.6776 6.61478 17.1494C6.81032 17.5406 6.91574 17.9722 6.87845 18.4258C6.84131 18.8766 6.67043 19.2571 6.46048 19.5615C6.07474 20.1208 5.47851 20.5273 5.03275 20.8115C4.4941 21.1549 4.1071 21.3625 3.69193 21.6572C3.29792 21.937 3.12369 22.1366 3.05814 22.2676C2.94891 22.4866 2.97824 22.9679 3.39408 23.7246C3.43287 23.7952 3.47361 23.8637 3.51419 23.9307H0.755406C0.476055 23.1227 0.339911 22.1154 0.822789 21.1494C1.16926 20.4568 1.75628 19.9649 2.24466 19.6182C2.71216 19.2863 3.33088 18.9314 3.689 18.7031C4.05343 18.4708 4.24892 18.3118 4.3472 18.207C4.16716 17.8563 3.96366 17.5371 3.74564 17.2002C3.53363 16.8726 3.26606 16.4674 3.0806 16.0596C3.0617 16.018 3.04401 15.9745 3.02591 15.9307H5.89994Z" fill="white"/>
</svg>
