<svg width="6" height="28" viewBox="0 0 6 28" fill="none" xmlns="http://www.w3.org/2000/svg">
<path d="M4.50008 13.1807V14.1807H1.50008V13.1807H4.50008ZM5.00008 12.6807V6.68066C5.00008 6.40452 4.77623 6.18066 4.50008 6.18066H1.50008C1.22394 6.18066 1.00008 6.40452 1.00008 6.68066V12.6807C1.00008 12.9568 1.22394 13.1807 1.50008 13.1807V14.1807C0.723421 14.1807 0.0846945 13.5904 0.00789735 12.834L8.48474e-05 12.6807V6.68066C8.4944e-05 5.85224 0.671658 5.18066 1.50008 5.18066H4.50008C5.32851 5.18066 6.00008 5.85224 6.00008 6.68066V12.6807L5.99227 12.834C5.91548 13.5904 5.27675 14.1807 4.50008 14.1807V13.1807C4.77623 13.1807 5.00008 12.9568 5.00008 12.6807Z" fill="white"/>
<path d="M1.00008 13.1807H5.00008V22.1807H1.00008V13.1807Z" fill="white"/>
<path d="M4.27548 21.9727C4.3997 21.7575 4.67694 21.6811 4.87118 21.8359C5.26558 22.1507 5.57654 22.5616 5.77157 23.0322C6.02429 23.6424 6.06847 24.3191 5.89755 24.957C5.72662 25.5949 5.35018 26.1585 4.82626 26.5605C4.30232 26.9626 3.66049 27.1807 3.00008 27.1807C2.33968 27.1807 1.69785 26.9626 1.17391 26.5605C0.649988 26.1585 0.273547 25.5949 0.102624 24.957C-0.0682993 24.3191 -0.0251004 23.6424 0.227624 23.0322C0.42265 22.5616 0.734588 22.1507 1.12899 21.8359C1.32323 21.6811 1.60047 21.7575 1.72469 21.9727C1.84888 22.1879 1.77085 22.4598 1.587 22.627L1.42587 22.791C1.27342 22.9637 1.14899 23.1613 1.05966 23.377L1.00008 23.5391C0.877254 23.9219 0.867069 24.3339 0.971765 24.7246C1.09147 25.171 1.35513 25.5653 1.72176 25.8467C2.08851 26.1281 2.53782 26.2803 3.00008 26.2803C3.46235 26.2803 3.91166 26.1281 4.27841 25.8467C4.64504 25.5653 4.9087 25.171 5.02841 24.7246C5.1331 24.3339 5.12292 23.9219 5.00008 23.5391L4.94051 23.377C4.85118 23.1613 4.72675 22.9637 4.5743 22.791L4.41317 22.627C4.22932 22.4598 4.15129 22.1879 4.27548 21.9727Z" fill="white"/>
<path d="M3.24716 0.19043C3.81945 0.237708 4.36793 0.449098 4.82626 0.800781C5.35018 1.20281 5.72662 1.7664 5.89755 2.4043C6.06847 3.0422 6.02429 3.71897 5.77157 4.3291L5.69344 4.50195C5.49793 4.90052 5.2165 5.24977 4.87118 5.52539L4.79501 5.57324C4.6364 5.64708 4.44735 5.59722 4.32821 5.46289L4.27548 5.38867C4.15129 5.17346 4.22932 4.90154 4.41317 4.73438C4.64055 4.52757 4.82047 4.2717 4.93954 3.98438C5.11643 3.55729 5.14805 3.08324 5.02841 2.63672C4.9087 2.19036 4.64504 1.79598 4.27841 1.51465C3.95757 1.26847 3.57355 1.12097 3.17294 1.08789L3.00008 1.08105C2.53782 1.08105 2.08851 1.23325 1.72176 1.51465C1.35513 1.79598 1.09147 2.19036 0.971765 2.63672C0.852121 3.08324 0.882761 3.55729 1.05966 3.98438C1.17872 4.27182 1.35953 4.52749 1.587 4.73438C1.77085 4.90154 1.84888 5.17346 1.72469 5.38867L1.67196 5.46289C1.55282 5.59722 1.36377 5.64708 1.20516 5.57324L1.12899 5.52539C0.783667 5.24977 0.502242 4.90052 0.306725 4.50195L0.2286 4.3291C-0.0241241 3.71897 -0.0682994 3.0422 0.102624 2.4043C0.273547 1.7664 0.649988 1.20281 1.17391 0.800781C1.69785 0.398754 2.33968 0.180664 3.00008 0.180664L3.24716 0.19043Z" fill="white"/>
<path d="M1.00008 4.68066C1.00008 4.40452 1.22394 4.18066 1.50008 4.18066H4.50008C4.77623 4.18066 5.00008 4.40452 5.00008 4.68066V5.68066C5.00008 5.95681 4.77623 6.18066 4.50008 6.18066H1.50008C1.22394 6.18066 1.00008 5.95681 1.00008 5.68066V4.68066Z" fill="white"/>
<path d="M1.00008 21.6807C1.00008 21.4045 1.22394 21.1807 1.50008 21.1807H4.50008C4.77623 21.1807 5.00008 21.4045 5.00008 21.6807V22.6807C5.00008 22.9568 4.77623 23.1807 4.50008 23.1807H1.50008C1.22394 23.1807 1.00008 22.9568 1.00008 22.6807V21.6807Z" fill="white"/>
</svg>
